<?xml version="1.0" encoding="utf-8"?>
<!-- Generator: Adobe Illustrator 15.1.0, SVG Export Plug-In  -->
<!DOCTYPE svg PUBLIC "-//W3C//DTD SVG 1.1//EN" "http://www.w3.org/Graphics/SVG/1.1/DTD/svg11.dtd" [
	<!ENTITY ns_flows "http://ns.adobe.com/Flows/1.0/">
]>
<svg version="1.1"
	 xmlns="http://www.w3.org/2000/svg" xmlns:xlink="http://www.w3.org/1999/xlink" xmlns:a="http://ns.adobe.com/AdobeSVGViewerExtensions/3.0/"
	 x="0px" y="0px" width="319px" height="273px" viewBox="0 0 319 273" overflow="visible" enable-background="new 0 0 319 273"
	 xml:space="preserve">
<defs>
</defs>
<path fill="#FFFFFF" d="M48.5,152.5v10.2H0v-51.8h11.8v41.6H48.5z M134.1,148.5c0,9.2-7.8,14.2-20.3,14.2H75.3v-51.8h35.6
	c12.4,0,20.3,4.9,20.3,13.2c0,5.9-3.8,11-11.5,11.5C127.7,136,134.1,140.3,134.1,148.5z M87,131.9h22c6.4,0,10.4-1,10.4-5.8
	c0-4.7-4-5.8-10.4-5.8H87V131.9z M122,147.1c0-5.3-3.9-6.2-10.6-6.2H87v12.4h24.4C118,153.4,122,152.3,122,147.1z M222.4,136.8
	c0,16.1-12.5,25.9-32,25.9h-27.5v-51.8h27.5C209.9,110.9,222.4,120.6,222.4,136.8z M210.4,136.8c0-10.7-8.4-15.8-20.9-15.8h-14.8
	v31.7h14.8C201.9,152.6,210.4,147.4,210.4,136.8z M319.4,136.9c0,19.7-15.1,32.7-38.9,32.7c-23.9,0-39-13-39-32.7s15-32.7,39-32.7
	C304.2,104.1,319.4,117.2,319.4,136.9z M315.3,136.9c0-18.6-14.2-29.1-34.8-29.1c-20.7,0-35.1,10.6-35.1,29.1
	c0,18.6,14.4,29.1,35.1,29.1c10.6,0,19.6-2.8,25.8-8.1h-12.1L284,144.4h-15.3v13.6h-10.9v-42.2h28.4c11,0,19.5,4.6,19.5,14.3
	c0,7.1-4.6,11.5-11.4,13.4l12,14.4C312.1,152.9,315.3,145.8,315.3,136.9z M285.4,137c5.6,0,9.3-1.8,9.3-6.7c0-5-3.7-6.8-9.3-6.8
	h-16.7V137H285.4z M109.1,223c-1.5,1.9-4.3,3.1-8,3.1c-5.7,0-9.3-2.7-9.3-7.5s3.6-7.5,9.3-7.5c3.5,0,6,1.2,7.4,2.6l-3,2.2
	c-1.2-1.1-2.5-1.6-4.3-1.6c-3.4,0-5.3,1.5-5.3,4.2c0,2.8,1.9,4.3,5.3,4.3c1.7,0,3.1-0.3,4.1-1.2v-1.3h-4.6v-2.9h8.4V223z
	 M133.6,225.6l-3.7-4.4h-4.1v4.4h-4.1v-14h9.8c3.6,0,6.4,1.6,6.4,4.8c0,2.3-1.5,3.8-3.7,4.5l4.1,4.8H133.6z M131.3,218.3
	c1.5,0,2.5-0.4,2.5-1.8c0-1.4-1.1-1.8-2.5-1.8h-5.5v3.5H131.3z M149.6,218.6c0-4.7,3.6-7.5,9.1-7.5s9.1,2.7,9.1,7.5
	s-3.6,7.5-9.1,7.5S149.6,223.4,149.6,218.6z M163.7,218.6c0-2.6-1.9-4.1-5-4.1c-3.1,0-5,1.5-5,4.1s1.9,4.1,5,4.1
	S163.7,221.3,163.7,218.6z M196.2,211.6v7.4c0,4.3-2.9,7.1-8.1,7.1c-5.2,0-8.1-2.8-8.1-7.1v-7.4h4.1v7.1c0,2.4,1.4,4,4.1,4
	c2.7,0,4-1.6,4-4v-7.1H196.2z M225.3,216.5c0,3.3-2.5,4.9-6.4,4.9h-5.6v4.2h-4.1v-14h9.7C222.8,211.6,225.3,213.3,225.3,216.5z
	 M221.2,216.6c0-1.4-1-1.9-2.6-1.9h-5.3v3.7h5.3C220.1,218.5,221.2,218,221.2,216.6z M99.1,57.8V60H88.7v-9.8H99v2.2h-7.5V54h6.2
	v2.1h-6.2v1.7H99.1z M118.8,57c0,2-1.9,3.4-5.4,3.4c-2.5,0-4.6-0.7-6.2-1.9l1.5-1.8c1.2,1,2.8,1.5,4.7,1.5c1.7,0,2.5-0.3,2.5-1
	c0-0.6-0.8-0.8-2.8-1c-2.9-0.3-5.6-0.9-5.6-3.1c0-2.1,2.3-3.3,5.4-3.3c2.1,0,4,0.5,5.4,1.5l-1.4,1.8c-1.1-0.8-2.4-1.1-3.9-1.1
	c-1.1,0-2.5,0.2-2.5,0.9c0,0.7,1.1,0.7,2.9,0.9C116.5,54.1,118.8,54.7,118.8,57z M137.4,52.5h-4.1V60h-2.9v-7.5h-4v-2.3h11V52.5z
	 M143.8,58.8c0-0.8,0.7-1.4,1.6-1.4c0.9,0,1.6,0.6,1.6,1.4c0,0.8-0.7,1.4-1.6,1.4C144.5,60.2,143.8,59.6,143.8,58.8z M170,49.9
	c2.4,0,4.9,0.9,4.9,3c0,1.7-1.6,2.6-3.7,3.3c-1.6,0.5-2.9,1.1-3.2,1.6h7.2V60h-10.5v-1.2c0.3-1.9,2-3.5,4.9-4.4
	c1.4-0.4,2.5-0.8,2.5-1.4c0-0.7-1.1-1-2.1-1c-1.3,0-2.6,0.6-3.6,1.6l-1.6-1.5C165.7,50.9,167.7,49.9,170,49.9z M183.2,55.1
	c0-3.3,2.4-5.2,6.1-5.2c3.8,0,6.1,1.9,6.1,5.2s-2.4,5.2-6.1,5.2C185.5,60.4,183.2,58.4,183.2,55.1z M192.5,55.1
	c0-1.9-1.2-2.9-3.2-2.9c-2,0-3.2,1-3.2,2.9c0,1.9,1.2,2.9,3.2,2.9C191.3,58,192.5,57,192.5,55.1z M206.4,53.2
	c-0.8,0.5-1.8,0.8-2.9,1v-2.3c1.3-0.2,2.7-0.9,3.6-1.7h2.2V60h-2.9V53.2z M223.3,58.1c1.5,0,2.5-0.3,2.5-1.2c0-0.9-1-1.3-2.6-1.3
	c-1,0-2,0.2-3,0.6l-2-0.8l0.8-5.2h8.7v2.1h-6.6l-0.3,2.1c1-0.6,2.2-0.9,3.5-0.9c2.2,0,4.5,1.1,4.5,3.4c0,1.8-1.6,3.4-5.4,3.4
	c-2.4,0-4.2-0.7-5.6-1.9l1.5-1.7C220,57.4,221.5,58.1,223.3,58.1z M194.6,270h-72.5v3h72.5V270z M194.6,0h-72.5v3h72.5V0z"/>
</svg>
