<?xml version="1.0" encoding="utf-8"?>
<!-- Generator: Adobe Illustrator 15.1.0, SVG Export Plug-In  -->
<!DOCTYPE svg PUBLIC "-//W3C//DTD SVG 1.1//EN" "http://www.w3.org/Graphics/SVG/1.1/DTD/svg11.dtd" [
	<!ENTITY ns_flows "http://ns.adobe.com/Flows/1.0/">
]>
<svg version="1.1"
	 xmlns="http://www.w3.org/2000/svg" xmlns:xlink="http://www.w3.org/1999/xlink" xmlns:a="http://ns.adobe.com/AdobeSVGViewerExtensions/3.0/"
	 x="0px" y="0px" width="544px" height="544px" viewBox="0 0 544 544" overflow="visible" enable-background="new 0 0 544 544"
	 xml:space="preserve">
<defs>
</defs>
<path fill="#231F20" d="M166.9,287.8V298h-48.5v-51.8h11.8v41.6H166.9z"/>
<path fill="#231F20" d="M252.6,283.8c0,9.2-7.8,14.2-20.3,14.2h-38.6v-51.8h35.6c12.4,0,20.3,4.9,20.3,13.2c0,5.9-3.8,11-11.5,11.5
	C246.2,271.4,252.6,275.6,252.6,283.8z M205.4,267.2h22c6.4,0,10.4-1,10.4-5.8c0-4.7-4-5.8-10.4-5.8h-22V267.2z M240.4,282.5
	c0-5.3-3.9-6.2-10.6-6.2h-24.4v12.4h24.4C236.5,288.7,240.4,287.7,240.4,282.5z"/>
<path fill="#231F20" d="M340.9,272.1c0,16.1-12.5,25.9-32,25.9h-27.5v-51.8h27.5C328.4,246.2,340.9,256,340.9,272.1z M328.9,272.1
	c0-10.7-8.4-15.8-20.9-15.8h-14.8V288H308C320.4,288,328.9,282.8,328.9,272.1z"/>
<path fill="#231F20" d="M415.4,298l-14.9-17.6h-18.7V298H370v-51.8h35.7c12.7,0,22.2,5.8,22.2,17.1c0,8.8-5.8,14.3-14.4,16.3
	l16,18.4H415.4z M405.1,270.6c6.2,0,10.8-1.5,10.8-7.3s-4.6-7.3-10.8-7.3h-23.4v14.5H405.1z"/>
<path fill="#231F20" d="M222.5,357.8c-1.5,1.9-4.3,3.1-8,3.1c-5.7,0-9.3-2.7-9.3-7.5c0-4.7,3.6-7.5,9.3-7.5c3.5,0,6,1.2,7.4,2.6
	l-3,2.2c-1.2-1.1-2.5-1.6-4.3-1.6c-3.4,0-5.3,1.5-5.3,4.2c0,2.8,1.9,4.3,5.3,4.3c1.7,0,3.1-0.3,4.1-1.2v-1.3h-4.6v-2.9h8.4V357.8z"
	/>
<path fill="#231F20" d="M247,360.5l-3.7-4.4h-4.1v4.4h-4.1v-14h9.8c3.6,0,6.4,1.6,6.4,4.8c0,2.3-1.5,3.8-3.7,4.5l4.1,4.8H247z
	 M244.7,353.1c1.5,0,2.5-0.4,2.5-1.8c0-1.4-1.1-1.8-2.5-1.8h-5.5v3.5H244.7z"/>
<path fill="#231F20" d="M263,353.5c0-4.7,3.6-7.5,9.1-7.5c5.5,0,9.1,2.7,9.1,7.5c0,4.7-3.6,7.5-9.1,7.5
	C266.5,360.9,263,358.2,263,353.5z M277.1,353.5c0-2.6-1.9-4.1-5-4.1c-3.1,0-5,1.5-5,4.1c0,2.6,1.9,4.1,5,4.1
	S277.1,356.1,277.1,353.5z"/>
<path fill="#231F20" d="M309.6,346.5v7.4c0,4.3-2.9,7.1-8.1,7.1c-5.2,0-8.1-2.8-8.1-7.1v-7.4h4.1v7.1c0,2.4,1.4,4,4.1,4
	c2.7,0,4-1.6,4-4v-7.1H309.6z"/>
<path fill="#231F20" d="M338.7,351.4c0,3.3-2.5,4.9-6.4,4.9h-5.6v4.2h-4.1v-14h9.7C336.2,346.5,338.7,348.2,338.7,351.4z
	 M334.6,351.5c0-1.4-1-1.9-2.6-1.9h-5.3v3.7h5.3C333.5,353.3,334.6,352.9,334.6,351.5z"/>
<path fill="#231F20" d="M212.5,192.7v2.2h-10.5v-9.8h10.3v2.2h-7.5v1.6h6.2v2.1h-6.2v1.7H212.5z"/>
<path fill="#231F20" d="M232.2,191.8c0,2-1.9,3.4-5.4,3.4c-2.5,0-4.6-0.7-6.2-1.9l1.5-1.8c1.2,1,2.8,1.5,4.7,1.5
	c1.7,0,2.5-0.3,2.5-1c0-0.6-0.8-0.8-2.8-1c-2.9-0.3-5.6-0.9-5.6-3.1c0-2.1,2.3-3.2,5.4-3.2c2.1,0,4,0.5,5.4,1.5l-1.4,1.8
	c-1.1-0.8-2.4-1.1-3.9-1.1c-1.1,0-2.5,0.2-2.5,0.9c0,0.7,1.1,0.7,2.9,0.9C229.9,188.9,232.2,189.6,232.2,191.8z"/>
<path fill="#231F20" d="M250.8,187.4h-4.1v7.5h-2.9v-7.5h-4v-2.3h11V187.4z"/>
<path fill="#231F20" d="M257.2,193.7c0-0.8,0.7-1.4,1.6-1.4c0.9,0,1.6,0.6,1.6,1.4c0,0.8-0.7,1.4-1.6,1.4
	C257.9,195.1,257.2,194.5,257.2,193.7z"/>
<path fill="#231F20" d="M283.4,184.8c2.4,0,4.9,0.9,4.9,3c0,1.7-1.6,2.6-3.7,3.3c-1.6,0.5-2.9,1.1-3.2,1.6h7.2v2.2H278v-1.2
	c0.3-1.9,2-3.5,4.9-4.4c1.4-0.4,2.5-0.8,2.5-1.4c0-0.7-1.1-1-2.1-1c-1.3,0-2.6,0.6-3.6,1.6l-1.6-1.5
	C279.1,185.7,281.1,184.8,283.4,184.8z"/>
<path fill="#231F20" d="M296.6,190c0-3.3,2.4-5.2,6.1-5.2c3.8,0,6.1,1.9,6.1,5.2c0,3.3-2.4,5.2-6.1,5.2
	C298.9,195.2,296.6,193.3,296.6,190z M305.9,190c0-1.9-1.2-2.9-3.2-2.9c-2,0-3.2,1-3.2,2.9c0,1.9,1.2,2.9,3.2,2.9
	C304.7,192.9,305.9,191.9,305.9,190z"/>
<path fill="#231F20" d="M319.8,188c-0.8,0.5-1.8,0.8-2.9,1v-2.3c1.3-0.2,2.7-0.9,3.6-1.7h2.2v9.8h-2.9V188z"/>
<path fill="#231F20" d="M336.7,193c1.5,0,2.5-0.3,2.5-1.2c0-0.9-1-1.3-2.6-1.3c-1,0-2,0.2-3,0.6l-2-0.8l0.8-5.2h8.7v2.1h-6.6
	l-0.3,2.1c1-0.6,2.2-0.9,3.5-0.9c2.2,0,4.5,1.1,4.5,3.4c0,1.8-1.6,3.4-5.4,3.4c-2.4,0-4.2-0.7-5.6-1.9l1.5-1.7
	C333.4,192.2,334.9,193,336.7,193z"/>
<rect x="235.5" y="404.8" fill="#231F20" width="72.5" height="3"/>
<rect x="235.5" y="134.8" fill="#231F20" width="72.5" height="3"/>
<path fill="#231F20" d="M271.8,543.5L0,271.8L271.8,0l271.8,271.8L271.8,543.5z M4.2,271.8l267.5,267.5l267.5-267.5L271.8,4.2
	L4.2,271.8z"/>
</svg>
