<?xml version="1.0" encoding="utf-8"?>
<!-- Generator: Adobe Illustrator 15.1.0, SVG Export Plug-In  -->
<!DOCTYPE svg PUBLIC "-//W3C//DTD SVG 1.1//EN" "http://www.w3.org/Graphics/SVG/1.1/DTD/svg11.dtd" [
	<!ENTITY ns_flows "http://ns.adobe.com/Flows/1.0/">
]>
<svg version="1.1"
	 xmlns="http://www.w3.org/2000/svg" xmlns:xlink="http://www.w3.org/1999/xlink" xmlns:a="http://ns.adobe.com/AdobeSVGViewerExtensions/3.0/"
	 x="0px" y="0px" width="319px" height="65px" viewBox="0 0 319 65" overflow="visible" enable-background="new 0 0 319 65"
	 xml:space="preserve">
<defs>
</defs>
<path fill="#FFFFFF" d="M48.5,48.3v10.2H0V6.7h11.8v41.6H48.5z"/>
<path fill="#FFFFFF" d="M134.1,44.3c0,9.2-7.8,14.2-20.3,14.2H75.3V6.7h35.6c12.4,0,20.3,4.9,20.3,13.2c0,5.9-3.8,11-11.5,11.5
	C127.7,31.9,134.1,36.1,134.1,44.3z M87,27.7h22c6.4,0,10.4-1,10.4-5.8c0-4.7-4-5.8-10.4-5.8H87V27.7z M122,43
	c0-5.3-3.9-6.2-10.6-6.2H87v12.4h24.4C118,49.2,122,48.2,122,43z"/>
<path fill="#FFFFFF" d="M222.4,32.6c0,16.1-12.5,25.9-32,25.9h-27.5V6.7h27.5C209.9,6.7,222.4,16.5,222.4,32.6z M210.4,32.6
	c0-10.7-8.4-15.8-20.9-15.8h-14.8v31.7h14.8C201.9,48.5,210.4,43.3,210.4,32.6z"/>
<path fill="#FFFFFF" d="M319.4,32.7c0,19.7-15.1,32.7-38.9,32.7c-23.9,0-39-13-39-32.7c0-19.7,15-32.7,39-32.7
	C304.2,0,319.4,13,319.4,32.7z M315.3,32.7c0-18.6-14.2-29.1-34.8-29.1s-35.1,10.6-35.1,29.1c0,18.6,14.4,29.1,35.1,29.1
	c10.6,0,19.6-2.8,25.8-8.1h-12.1L284,40.2h-15.3v13.6h-10.9V11.5h28.4c11,0,19.5,4.6,19.5,14.3c0,7.1-4.6,11.5-11.4,13.4l12,14.4
	C312.1,48.8,315.3,41.6,315.3,32.7z M285.4,32.8c5.6,0,9.3-1.8,9.3-6.7c0-5-3.7-6.8-9.3-6.8h-16.7v13.5H285.4z"/>
</svg>
