<?xml version="1.0" encoding="utf-8"?>
<!-- Generator: Adobe Illustrator 15.1.0, SVG Export Plug-In  -->
<!DOCTYPE svg PUBLIC "-//W3C//DTD SVG 1.1//EN" "http://www.w3.org/Graphics/SVG/1.1/DTD/svg11.dtd" [
	<!ENTITY ns_flows "http://ns.adobe.com/Flows/1.0/">
]>
<svg version="1.1"
	 xmlns="http://www.w3.org/2000/svg" xmlns:xlink="http://www.w3.org/1999/xlink" xmlns:a="http://ns.adobe.com/AdobeSVGViewerExtensions/3.0/"
	 x="0px" y="0px" width="436px" height="171px" viewBox="0 0 436 171" overflow="visible" enable-background="new 0 0 436 171"
	 xml:space="preserve">
<defs>
</defs>
<path fill="#FFFFFF" d="M64.9,169.5v1.3h-6.2v-6.2h1.6v4.9H64.9z"/>
<path fill="#FFFFFF" d="M75.2,164.6v3.3c0,1.9-1.3,3.1-3.7,3.1c-2.4,0-3.7-1.3-3.7-3.1v-3.3h1.6v3.2c0,1.2,0.7,1.9,2.1,1.9
	c1.4,0,2.1-0.7,2.1-1.9v-3.2H75.2z"/>
<path fill="#FFFFFF" d="M83.2,167.7l3,3.2h-1.9l-2-2.1l-2,2.1h-1.9l3-3.2l-2.9-3.1h1.9l2,2.1l2-2.1h1.9L83.2,167.7z"/>
<path fill="#FFFFFF" d="M96.6,164.6v3.3c0,1.9-1.3,3.1-3.7,3.1c-2.4,0-3.7-1.3-3.7-3.1v-3.3h1.6v3.2c0,1.2,0.7,1.9,2.1,1.9
	c1.4,0,2.1-0.7,2.1-1.9v-3.2H96.6z"/>
<path fill="#FFFFFF" d="M106,170.9l-1.8-2.1H102v2.1h-1.6v-6.2h4.5c1.6,0,2.8,0.7,2.8,2.1c0,1.1-0.7,1.7-1.7,2l2,2.2H106z
	 M104.8,167.5c0.8,0,1.3-0.1,1.3-0.8c0-0.7-0.6-0.8-1.3-0.8h-2.8v1.6H104.8z"/>
<path fill="#FFFFFF" d="M112,164.6l2.1,2.8l2.1-2.8h1.8l-3.1,4.1v2.1h-1.6v-2.1l-3.1-4.1H112z"/>
<path fill="#FFFFFF" d="M133.4,169.1c0,1.1-1,1.7-2.6,1.7H126v-6.2h4.5c1.6,0,2.6,0.6,2.6,1.6c0,0.7-0.5,1.4-1.5,1.4
	C132.6,167.7,133.4,168.1,133.4,169.1z M127.5,167.1h2.7c0.8,0,1.2-0.1,1.2-0.6c0-0.5-0.5-0.6-1.2-0.6h-2.7V167.1z M131.8,169
	c0-0.6-0.5-0.7-1.2-0.7h-3v1.4h3C131.3,169.7,131.8,169.5,131.8,169z"/>
<path fill="#FFFFFF" d="M142.6,170.9l-1.8-2.1h-2.2v2.1h-1.6v-6.2h4.5c1.6,0,2.8,0.7,2.8,2.1c0,1.1-0.7,1.7-1.7,2l2,2.2H142.6z
	 M141.3,167.5c0.8,0,1.3-0.1,1.3-0.8c0-0.7-0.6-0.8-1.3-0.8h-2.8v1.6H141.3z"/>
<path fill="#FFFFFF" d="M153.5,169.6h-3.8l-0.7,1.3h-1.7l3.4-6.2h1.7l3.4,6.2h-1.7L153.5,169.6z M152.9,168.4l-1.3-2.4l-1.3,2.4
	H152.9z"/>
<path fill="#FFFFFF" d="M166.6,164.6v6.2h-1.4l-4.5-4.3v4.3h-1.5v-6.2h1.7l4.2,4.1v-4.1H166.6z"/>
<path fill="#FFFFFF" d="M178,167.7c0,1.9-1.6,3.1-4.1,3.1h-3.5v-6.2h3.5C176.4,164.6,178,165.8,178,167.7z M176.4,167.7
	c0-1.2-1-1.8-2.6-1.8H172v3.5h1.8C175.4,169.5,176.4,168.9,176.4,167.7z"/>
<path fill="#FFFFFF" d="M193.9,167.7c0,1.9-1.6,3.1-4.1,3.1h-3.5v-6.2h3.5C192.3,164.6,193.9,165.8,193.9,167.7z M192.3,167.7
	c0-1.2-1-1.8-2.6-1.8H188v3.5h1.8C191.3,169.5,192.3,168.9,192.3,167.7z"/>
<path fill="#FFFFFF" d="M204.2,169.6v1.3h-6.8v-6.2h6.7v1.3H199v1.1h4.2v1.3H199v1.2H204.2z"/>
<path fill="#FFFFFF" d="M208.8,164.6l2.4,4.7l2.4-4.7h1.7l-3.3,6.2h-1.7l-3.2-6.2H208.8z"/>
<path fill="#FFFFFF" d="M225.1,169.6v1.3h-6.8v-6.2h6.7v1.3h-5.1v1.1h4.2v1.3h-4.2v1.2H225.1z"/>
<path fill="#FFFFFF" d="M234.8,169.5v1.3h-6.2v-6.2h1.6v4.9H234.8z"/>
<path fill="#FFFFFF" d="M237.6,167.7c0-2.1,1.6-3.3,4.2-3.3c2.6,0,4.2,1.2,4.2,3.3c0,2.1-1.6,3.3-4.2,3.3
	C239.2,171.1,237.6,169.8,237.6,167.7z M244.3,167.7c0-1.3-1-2-2.5-2c-1.6,0-2.5,0.7-2.5,2c0,1.3,1,2,2.5,2
	C243.3,169.8,244.3,169,244.3,167.7z"/>
<path fill="#FFFFFF" d="M256.7,166.8c0,1.4-1.1,2.2-2.8,2.2H251v1.9h-1.6v-6.2h4.5C255.5,164.6,256.7,165.4,256.7,166.8z
	 M255.1,166.8c0-0.7-0.5-0.8-1.3-0.8H251v1.7h2.8C254.5,167.6,255.1,167.5,255.1,166.8z"/>
<path fill="#FFFFFF" d="M268.8,164.6v6.2h-1.6v-4.3l-2.8,3.2h-0.1l-2.8-3.2v4.3H260v-6.2h1.7l2.7,3.2l2.7-3.2H268.8z"/>
<path fill="#FFFFFF" d="M279.4,169.6v1.3h-6.8v-6.2h6.7v1.3h-5.1v1.1h4.2v1.3h-4.2v1.2H279.4z"/>
<path fill="#FFFFFF" d="M290.4,164.6v6.2H289l-4.5-4.3v4.3h-1.5v-6.2h1.7l4.2,4.1v-4.1H290.4z"/>
<path fill="#FFFFFF" d="M300.8,166H298v4.9h-1.6V166h-2.8v-1.3h7.2V166z"/>
<path fill="#FFFFFF" d="M314.7,170.9l-0.5-0.3c-0.6,0.3-1.4,0.5-2.3,0.5c-2,0-3.4-0.9-3.4-2.1c0-0.7,0.5-1.3,1.4-1.6
	c-0.4-0.3-0.6-0.7-0.6-1.1c0-1,1-1.8,2.6-1.8c1.7,0,2.6,0.8,3.1,1.6l-1.3,0.5c-0.5-0.8-1.1-1-1.8-1c-0.7,0-1.1,0.2-1.1,0.6
	c0,0.4,0.3,0.6,1,1.1l2.3,1.7c0.2-0.3,0.3-0.7,0.4-1.2h1.4c0,0.7-0.3,1.4-0.7,1.9l1.4,1.1H314.7z M313.1,169.7l-2.5-1.8
	c-0.3,0.2-0.5,0.6-0.5,0.8c0,0.7,0.8,1.2,2,1.2C312.5,169.9,312.8,169.8,313.1,169.7z"/>
<path fill="#FFFFFF" d="M330.1,170.9l-1.8-2.1h-2.2v2.1h-1.6v-6.2h4.5c1.6,0,2.8,0.7,2.8,2.1c0,1.1-0.7,1.7-1.7,2l2,2.2H330.1z
	 M328.9,167.5c0.8,0,1.3-0.1,1.3-0.8c0-0.7-0.6-0.8-1.3-0.8H326v1.6H328.9z"/>
<path fill="#FFFFFF" d="M342.2,169.6v1.3h-6.8v-6.2h6.7v1.3H337v1.1h4.2v1.3H337v1.2H342.2z"/>
<path fill="#FFFFFF" d="M352.3,166h-2.8v4.9h-1.6V166h-2.8v-1.3h7.2V166z"/>
<path fill="#FFFFFF" d="M360,169.6h-3.8l-0.7,1.3h-1.7l3.4-6.2h1.7l3.4,6.2h-1.7L360,169.6z M359.3,168.4l-1.3-2.4l-1.3,2.4H359.3z"
	/>
<path fill="#FFFFFF" d="M365.5,170.9v-6.2h1.6v6.2H365.5z"/>
<path fill="#FFFFFF" d="M377.1,169.5v1.3H371v-6.2h1.6v4.9H377.1z"/>
<path fill="#FFFFFF" d="M111.4,95.7v4.2H59.1V40.4h4.4v55.3H111.4z"/>
<path fill="#FFFFFF" d="M286.1,70.1c0,18.2-13.8,29.7-35.2,29.7h-27.7V40.4h27.7C272.4,40.4,286.1,52,286.1,70.1z M281.6,70.1
	c0-16.6-13-25.6-31-25.6h-23v51.2h23C268.6,95.7,281.6,86.8,281.6,70.1z"/>
<path fill="#FFFFFF" d="M318,44.5h34.3c11,0,17.8,4.8,17.8,13.7c0,8.9-6.9,13.8-17.8,13.8h-15.1V76h12.8l20.8,23.9h5.8l-21.1-23.9
	c11.6-0.8,19.3-7.3,19.3-17.7c0-11.1-8.8-17.7-22.1-17.7h-39v59.4h4.5"/>
<path fill="#FFFFFF" d="M179.7,69.1c8.4-0.8,13-6.9,13-13.9c0-9.8-8.4-14.8-19.4-14.8h-39.2v59.4h40.1c13.5,0,21.9-5.2,21.9-16.1
	C196,73.3,188.7,69.6,179.7,69.1z M138.5,44.4h34.3c8.7,0,15.4,3.1,15.4,11.3c0,8.1-6.6,11.6-15.4,11.6h-16.5v4.1h17.2
	c11.3,0,18,3.4,18,12.1s-6.7,12.3-18,12.3h-35"/>
<path fill="#FFFFFF" d="M435.6,140.3H0V0h435.6V140.3z M3,137.3h429.6V3H3V137.3z"/>
</svg>
